
<svg xmlns="http://www.w3.org/2000/svg" xmlns:xlink="http://www.w3.org/1999/xlink" version="1.1" x="0px" y="0px" viewBox="0 0 126 126" enable-background="new 0 0 126 126" xml:space="preserve"><style>.style0{stroke:	#1691d1;stroke-width:	3;stroke-miterlimit:	10;fill:	none;}.style1{fill:	#1691d1;}.style2{fill:	#FFFFFF;}</style><circle cx="63" cy="63" r="61.5" class="style0"/><g><path d="M26.5 72.2h-2l-8.8-1.3c0 0-1-0.1-1.5-0.8s-0.7-0.4-0.8-1c-0.1-0.5-0.5-3.3-0.5-3.5 c0.1-0.2 0.3-0.8 0.7-1.1c0.3-0.3 0.8-1 1-2.4c0.3-1.4 0.5-2.8 0.9-3.3c0.3-0.4 0.3-0.7 0.7-1.2c0.3-0.5 0.4-1.3 2.1-1.5 c1.6-0.2 4.1-0.5 5.2-0.7c1.1-0.2 1.5-0.2 2.5-0.7c1-0.5 6.3-3.3 7.7-3.9c1.4-0.7 2.2-1.2 3.9-1.6c1.7-0.5 2.4-0.7 2.6-0.7 s0.2 0 0.3-0.7c0 0 0.2-0.1 0.3 0c0.1 0.1 0.3 0.5 0.3 0.5s2.1-0.3 2.8-0.3c0.8-0.1 8.1-0.9 14.9-0.3c6.9 0.5 7.4 0.7 8.2 0.8 c0.8 0.1 2.9 0.5 4.9 1.5c2 1.1 9.1 5.1 9.6 5.4s2.2 1.4 2.2 1.4h1.7c0 0 12.2 1 17 2.1c4.8 1.2 6.9 1.6 7.8 2.3 c1.1 0.5 1.3 0.8 1.6 1.5c0.3 0.7 0.7 1.3 0.8 1.6c0.1 0.3 0.2 1.5 0.2 2.3c0 0.8 0.1 1.3 0.1 1.4c0 0.5 0 1 0 1.1 c0 0.2-0.1 1.5-0.1 1.5l-0.2 0.2v0.8l0.3 0.4c0 0 0 1-0.1 1.3c-0.1 0.3-0.4 0.4-0.8 0.5c-0.3 0.1-5.3 1.2-5.3 1.2s-1.6-0.2-1.9-0.1 c-0.2 0.1-1 0.2-1 0.2H102l-13.7-0.4c0 0-2.3 0.3-5.3 0.3c-3 0-28.5-0.8-28.5-0.8L40.3 74L26.5 72.2z" class="style1"/><path d="M34.2 55.9c0 0 1.6-1.9 2.8-2.7c1.2-0.9 3.3-2.1 3.4-2.2c0.2-0.1 0.3-0.1 0.3-0.1s-0.2 0.7-0.2 5H34.2 L34.2 55.9z" class="style2"/><path d="M41.2 55.9l0.1-5.1c0 0 1.2-0.5 2.1-0.8s2.4-0.4 3.2-0.5c0.8-0.1 3-0.2 4.1-0.2s2.9 0 2.9 0l-0.1 7.2 L41.2 55.9z" class="style2"/><path d="M56.3 49.2c0 0 1.5 0 2.6 0.1c1.1 0.1 2.9 0.2 4.1 0.5c1.2 0.2 2 0.4 2.6 0.7c0.5 0.2 1.5 0.7 2.3 1 c0.8 0.4 2.3 1.3 3 1.7c0.8 0.4 2.9 2.1 2.9 2.1s-1 0-1.2 0.1c-0.2 0.1-1 0.3-1.1 0.7s-0.3 1.2-0.3 1.3c0 0.1 0 0.3 0 0.3 s-11-1.3-13.9-1.3L56.3 49.2z" class="style2"/><path d="M69.8 49.7c0 0-1.5-0.2-1.9-0.2c-0.3 0-0.5 0.1-0.4 0.2c0.1 0.1 3.8 2.2 5.1 2.8c1.2 0.8 3.7 2.5 4.5 2.9 c0.8 0.4 1.4 0.9 2.1 1.2c0.7 0.2 1.3 0.5 1.7 0.7c0.4 0 0.9 0 1.2 0c0.3 0 1-0.1 1-0.1S72.7 50.8 69.8 49.7z" class="style2"/><path d="M101.9 62c0 0 0.5-0.5 1.9-0.5c1.4 0 2.4 0.3 3.3 0.9c0.9 0.5 1.9 1.1 2.2 1.4c0.2 0.2 0.8 1 0.9 1.4 s0.3 0.8 0.3 1c0 0.1 0 0.4-0.2 0.5c-0.2 0.1-0.3 0.1-0.7 0c-0.3-0.1-2.2-1.1-2.5-1.1c-0.3-0.1-0.7-0.1-0.9-0.2 C106 65.2 103.5 64 101.9 62z" class="style2"/><path d="M111 62.5c0 0-0.4 0.2-0.4 0.3s0 0.8 0 1.1c0 0.4 0.5 2.4 0.7 2.7c0.2 0.3 0.3 0.5 0.4 0.7s0.3 0.3 0.4 0.3 c0.1 0 0.2-0.2 0.2-0.5c0-0.3 0.1-1.4-0.1-2.2C112 64.2 111.2 62.4 111 62.5z" class="style2"/><path d="M16.3 58.4c0 0 1.7-0.1 2.5-0.1c0.8 0.1 1.1 0.1 1.5 0.3c0.4 0.2 0.5 0.5 0.7 0.8s-0.1 0.4-0.4 0.8 c-0.3 0.3-1.4 1.3-1.6 1.4s-0.4 0.3-0.8 0.4c-0.3 0.1-1.4 0.1-2 0.1c-0.4 0-1 0.1-1.1 0C15.1 62.1 15.1 60.1 16.3 58.4z" class="style2"/><g><circle cx="32.8" cy="71" r="7.4" class="style1"/><path d="M32.8 78.7c-4.2 0-7.6-3.4-7.6-7.6s3.4-7.6 7.6-7.6s7.6 3.4 7.6 7.6C40.4 75.3 36.9 78.7 32.8 78.7z M32.8 64c-3.9 0-7.2 3.2-7.2 7.2c0 3.9 3.2 7.2 7.2 7.2s7.2-3.2 7.2-7.2C39.8 67.1 36.7 64 32.8 64z" class="style2"/></g><g><circle cx="94.6" cy="71" r="7.4" class="style1"/><path d="M94.6 78.7c-4.2 0-7.6-3.4-7.6-7.6s3.4-7.6 7.6-7.6s7.6 3.4 7.6 7.6C102.3 75.3 98.8 78.7 94.6 78.7z M94.6 64c-3.9 0-7.2 3.2-7.2 7.2c0 3.9 3.2 7.2 7.2 7.2s7.2-3.2 7.2-7.2C101.8 67.1 98.6 64 94.6 64z" class="style2"/></g><path d="M31.8 65.9c0 0 0.2 0.5 0.2 1.2s0 1.1 0 1.4s-0.1 0.5-0.2 0.8c-0.1 0.1-0.3 0.3-0.5 0.3c-0.2 0-0.5 0-1-0.3 c-0.4-0.2-1.2-0.5-1.4-0.7c-0.2-0.1-0.4-0.3-0.4-0.4s0.7-1.1 1.4-1.5C30.6 66.2 31 66 31.8 65.9z" class="style2"/><path d="M37 68.5c0 0-0.5 0.3-1.1 0.5c-0.5 0.2-1 0.3-1.4 0.4c-0.4 0.1-0.5 0.1-0.8 0c-0.2-0.1-0.4-0.2-0.4-0.4 c0-0.2-0.1-0.5 0-1.1c0.1-0.5 0.2-1.3 0.2-1.5c0-0.2 0.2-0.5 0.3-0.5s1.2 0.3 1.9 0.9S36.7 67.8 37 68.5z" class="style2"/><path d="M36.1 74.4c0 0-0.5-0.4-0.9-0.9c-0.3-0.5-0.7-0.9-0.8-1.2c-0.2-0.3-0.2-0.5-0.2-0.8c0-0.2 0.1-0.4 0.3-0.5 s0.4-0.2 1-0.3c0.5-0.1 1.3-0.2 1.5-0.2c0.2 0 0.5 0 0.7 0.1c0 0.1 0 1.3-0.3 2.1C37 73.4 36.8 73.9 36.1 74.4z" class="style2"/><path d="M30.8 75.7c0 0 0.2-0.7 0.5-1.2s0.5-0.9 0.8-1.2c0.2-0.3 0.3-0.4 0.5-0.4c0.2 0 0.4-0.1 0.7 0.1 c0.2 0.2 0.4 0.3 0.7 0.8s0.7 1.1 0.8 1.3c0.1 0.2 0.2 0.5 0.1 0.7s-1.2 0.5-2 0.4C32.1 76 31.6 76 30.8 75.7z" class="style2"/><path d="M27.9 70.5c0 0 0.7 0 1.2 0.2c0.5 0.2 1.1 0.3 1.4 0.4c0.3 0.1 0.5 0.2 0.7 0.4c0.1 0.2 0.2 0.4 0.1 0.7 c-0.1 0.2-0.2 0.4-0.7 0.9c-0.4 0.3-0.9 1-1.1 1.1c-0.2 0.1-0.4 0.3-0.5 0.2s-0.8-1-1-1.9C27.8 71.8 27.7 71.4 27.9 70.5z" class="style2"/><circle cx="32.2" cy="69.8" r="0.2" class="style2"/><circle cx="33.6" cy="70.2" r="0.2" class="style2"/><circle cx="33.9" cy="71.5" r="0.2" class="style2"/><circle cx="32.8" cy="72.3" r="0.2" class="style2"/><circle cx="31.7" cy="71.2" r="0.2" class="style2"/><path d="M93.7 65.9c0 0 0.2 0.5 0.2 1.2s0 1.1 0 1.4s-0.1 0.5-0.2 0.8c-0.1 0.1-0.3 0.3-0.5 0.3s-0.5 0-1-0.3 c-0.4-0.2-1.2-0.5-1.4-0.7c-0.2-0.1-0.4-0.3-0.4-0.4s0.7-1.1 1.4-1.5C92.5 66.2 92.9 66 93.7 65.9z" class="style2"/><path d="M98.9 68.5c0 0-0.5 0.3-1.1 0.5c-0.5 0.2-1 0.3-1.4 0.4c-0.3 0.1-0.5 0.1-0.8 0c-0.2-0.1-0.4-0.2-0.4-0.4 c0-0.2-0.1-0.5 0-1.1s0.2-1.3 0.2-1.5c0-0.2 0.2-0.5 0.3-0.5s1.2 0.3 1.9 0.9C98.3 67.3 98.6 67.8 98.9 68.5z" class="style2"/><path d="M98.1 74.4c0 0-0.5-0.4-0.9-0.9c-0.3-0.5-0.7-0.9-0.8-1.2c-0.1-0.3-0.2-0.5-0.2-0.8c0-0.2 0.1-0.4 0.3-0.5 c0.2-0.1 0.4-0.2 1-0.3c0.5 0 1.3-0.2 1.5-0.2c0.2 0 0.5 0 0.7 0.1c0 0.1 0 1.3-0.3 2.1C98.9 73.4 98.7 73.9 98.1 74.4z" class="style2"/><path d="M92.7 75.7c0 0 0.2-0.7 0.5-1.2s0.5-0.9 0.8-1.2c0.2-0.3 0.3-0.4 0.5-0.4s0.4-0.1 0.7 0.1s0.4 0.3 0.7 0.8 c0.2 0.4 0.7 1.1 0.8 1.3c0.1 0.2 0.2 0.5 0.1 0.7s-1.2 0.5-2 0.4C94 76 93.5 76 92.7 75.7z" class="style2"/><path d="M89.8 70.5c0 0 0.7 0 1.2 0.2c0.5 0.2 1.1 0.3 1.4 0.4s0.5 0.2 0.7 0.4c0.1 0.2 0.2 0.4 0.1 0.7 s-0.2 0.4-0.7 0.9c-0.4 0.3-0.9 1-1.1 1.1c-0.2 0.1-0.4 0.3-0.5 0.2s-0.8-1-1-1.9C89.7 71.8 89.6 71.4 89.8 70.5z" class="style2"/><circle cx="94.2" cy="69.8" r="0.2" class="style2"/><circle cx="95.5" cy="70.2" r="0.2" class="style2"/><circle cx="95.8" cy="71.5" r="0.2" class="style2"/><circle cx="94.7" cy="72.3" r="0.2" class="style2"/><circle cx="93.6" cy="71.2" r="0.2" class="style2"/></g><g></g></svg>
